<svg width="820" height="235" viewBox="0 0 820 235" fill="none" xmlns="http://www.w3.org/2000/svg">
<rect x="2.5" y="2.5" width="815" height="230" fill="#070F2A"/>
<path d="M29.2793 37.4531V73H20.71V37.4531H29.2793ZM43.0977 52.248V58.8398H26.8379V52.248H43.0977ZM44.4893 37.4531V44.0693H26.8379V37.4531H44.4893ZM48.0537 37.4531H62.043C64.7773 37.4531 67.1536 37.86 69.1719 38.6738C71.1901 39.4876 72.7445 40.6921 73.835 42.2871C74.9417 43.8822 75.4951 45.8516 75.4951 48.1953C75.4951 50.2298 75.1777 51.9307 74.543 53.2979C73.9082 54.665 73.0212 55.7962 71.8818 56.6914C70.7588 57.5703 69.4486 58.2946 67.9512 58.8643L65.1436 60.4512H53.4004L53.3516 53.835H62.043C63.1335 53.835 64.0368 53.6396 64.7529 53.249C65.4691 52.8584 66.0062 52.305 66.3643 51.5889C66.7386 50.8564 66.9258 49.9857 66.9258 48.9766C66.9258 47.9512 66.7386 47.0723 66.3643 46.3398C65.9899 45.6074 65.4365 45.0459 64.7041 44.6553C63.988 44.2646 63.1009 44.0693 62.043 44.0693H56.623V73H48.0537V37.4531ZM67.5117 73L59.6504 57.2773L68.7324 57.2285L76.6914 72.6338V73H67.5117ZM110.749 54.5186V55.959C110.749 58.6771 110.367 61.1185 109.602 63.2832C108.853 65.4316 107.787 67.2708 106.403 68.8008C105.02 70.3145 103.384 71.4782 101.496 72.292C99.6081 73.0895 97.5247 73.4883 95.2461 73.4883C92.9512 73.4883 90.8516 73.0895 88.9473 72.292C87.0592 71.4782 85.4154 70.3145 84.0156 68.8008C82.6322 67.2708 81.5579 65.4316 80.793 63.2832C80.0443 61.1185 79.6699 58.6771 79.6699 55.959V54.5186C79.6699 51.8005 80.0443 49.359 80.793 47.1943C81.5579 45.0296 82.624 43.1904 83.9912 41.6768C85.3747 40.1468 87.0104 38.9831 88.8984 38.1855C90.8027 37.3717 92.9023 36.9648 95.1973 36.9648C97.4759 36.9648 99.5592 37.3717 101.447 38.1855C103.352 38.9831 104.995 40.1468 106.379 41.6768C107.762 43.1904 108.837 45.0296 109.602 47.1943C110.367 49.359 110.749 51.8005 110.749 54.5186ZM102.058 55.959V54.4697C102.058 52.7119 101.903 51.1657 101.594 49.8311C101.301 48.4801 100.861 47.349 100.275 46.4375C99.6895 45.526 98.9652 44.8424 98.1025 44.3867C97.2562 43.9147 96.2878 43.6787 95.1973 43.6787C94.0579 43.6787 93.0651 43.9147 92.2188 44.3867C91.3724 44.8424 90.6644 45.526 90.0947 46.4375C89.5251 47.349 89.0938 48.4801 88.8008 49.8311C88.5241 51.1657 88.3857 52.7119 88.3857 54.4697V55.959C88.3857 57.7005 88.5241 59.2467 88.8008 60.5977C89.0938 61.9323 89.5251 63.0635 90.0947 63.9912C90.6807 64.9189 91.3968 65.6188 92.2432 66.0908C93.1058 66.5628 94.1068 66.7988 95.2461 66.7988C96.3366 66.7988 97.305 66.5628 98.1514 66.0908C98.9977 65.6188 99.7057 64.9189 100.275 63.9912C100.861 63.0635 101.301 61.9323 101.594 60.5977C101.903 59.2467 102.058 57.7005 102.058 55.959ZM144.88 37.4531V73H136.335L123.762 50.8809V73H115.192V37.4531H123.762L136.335 59.5723V37.4531H144.88ZM166.779 37.4531V73H158.21V37.4531H166.779ZM177.473 37.4531V44.0693H147.761V37.4531H177.473ZM190.144 54.4941V60.8662H175.471V54.4941H190.144ZM221.442 66.4082V73H202.497V66.4082H221.442ZM205.549 37.4531V73H196.979V37.4531H205.549ZM219.001 51.5645V57.9365H202.497V51.5645H219.001ZM221.516 37.4531V44.0693H202.497V37.4531H221.516ZM254.646 37.4531V73H246.101L233.527 50.8809V73H224.958V37.4531H233.527L246.101 59.5723V37.4531H254.646ZM271.613 73H263.728L263.776 66.4082H271.613C273.241 66.4082 274.616 66.0176 275.739 65.2363C276.879 64.4551 277.741 63.2913 278.327 61.7451C278.929 60.1826 279.23 58.262 279.23 55.9834V54.4453C279.23 52.7363 279.06 51.2389 278.718 49.9531C278.392 48.651 277.904 47.5687 277.253 46.7061C276.602 45.8271 275.788 45.168 274.812 44.7285C273.851 44.2891 272.744 44.0693 271.491 44.0693H263.581V37.4531H271.491C273.9 37.4531 276.105 37.8682 278.107 38.6982C280.126 39.512 281.867 40.6839 283.332 42.2139C284.813 43.7275 285.952 45.526 286.75 47.6094C287.564 49.6764 287.971 51.9714 287.971 54.4941V55.9834C287.971 58.4899 287.564 60.7848 286.75 62.8682C285.952 64.9515 284.821 66.75 283.356 68.2637C281.892 69.7773 280.158 70.9492 278.156 71.7793C276.171 72.5931 273.99 73 271.613 73ZM268.635 37.4531V73H260.065V37.4531H268.635ZM316.438 73H308.552L308.601 66.4082H316.438C318.065 66.4082 319.44 66.0176 320.563 65.2363C321.703 64.4551 322.565 63.2913 323.151 61.7451C323.754 60.1826 324.055 58.262 324.055 55.9834V54.4453C324.055 52.7363 323.884 51.2389 323.542 49.9531C323.216 48.651 322.728 47.5687 322.077 46.7061C321.426 45.8271 320.612 45.168 319.636 44.7285C318.675 44.2891 317.569 44.0693 316.315 44.0693H308.405V37.4531H316.315C318.724 37.4531 320.93 37.8682 322.932 38.6982C324.95 39.512 326.691 40.6839 328.156 42.2139C329.637 43.7275 330.777 45.526 331.574 47.6094C332.388 49.6764 332.795 51.9714 332.795 54.4941V55.9834C332.795 58.4899 332.388 60.7848 331.574 62.8682C330.777 64.9515 329.646 66.75 328.181 68.2637C326.716 69.7773 324.982 70.9492 322.98 71.7793C320.995 72.5931 318.814 73 316.438 73ZM313.459 37.4531V73H304.89V37.4531H313.459ZM361.726 66.4082V73H342.78V66.4082H361.726ZM345.832 37.4531V73H337.263V37.4531H345.832ZM359.284 51.5645V57.9365H342.78V51.5645H359.284ZM361.799 37.4531V44.0693H342.78V37.4531H361.799ZM378.693 64.626L386.091 37.4531H395.686L383.698 73H377.497L378.693 64.626ZM371.979 37.4531L379.377 64.626L380.622 73H374.348L362.434 37.4531H371.979ZM422.761 66.4082V73H403.815V66.4082H422.761ZM406.867 37.4531V73H398.298V37.4531H406.867ZM420.319 51.5645V57.9365H403.815V51.5645H420.319ZM422.834 37.4531V44.0693H403.815V37.4531H422.834ZM449.763 66.4082V73H431.794V66.4082H449.763ZM434.846 37.4531V73H426.276V37.4531H434.846ZM481.892 54.5186V55.959C481.892 58.6771 481.509 61.1185 480.744 63.2832C479.995 65.4316 478.929 67.2708 477.546 68.8008C476.162 70.3145 474.527 71.4782 472.639 72.292C470.751 73.0895 468.667 73.4883 466.389 73.4883C464.094 73.4883 461.994 73.0895 460.09 72.292C458.202 71.4782 456.558 70.3145 455.158 68.8008C453.775 67.2708 452.701 65.4316 451.936 63.2832C451.187 61.1185 450.812 58.6771 450.812 55.959V54.5186C450.812 51.8005 451.187 49.359 451.936 47.1943C452.701 45.0296 453.767 43.1904 455.134 41.6768C456.517 40.1468 458.153 38.9831 460.041 38.1855C461.945 37.3717 464.045 36.9648 466.34 36.9648C468.618 36.9648 470.702 37.3717 472.59 38.1855C474.494 38.9831 476.138 40.1468 477.521 41.6768C478.905 43.1904 479.979 45.0296 480.744 47.1943C481.509 49.359 481.892 51.8005 481.892 54.5186ZM473.2 55.959V54.4697C473.2 52.7119 473.046 51.1657 472.736 49.8311C472.443 48.4801 472.004 47.349 471.418 46.4375C470.832 45.526 470.108 44.8424 469.245 44.3867C468.399 43.9147 467.43 43.6787 466.34 43.6787C465.201 43.6787 464.208 43.9147 463.361 44.3867C462.515 44.8424 461.807 45.526 461.237 46.4375C460.668 47.349 460.236 48.4801 459.943 49.8311C459.667 51.1657 459.528 52.7119 459.528 54.4697V55.959C459.528 57.7005 459.667 59.2467 459.943 60.5977C460.236 61.9323 460.668 63.0635 461.237 63.9912C461.823 64.9189 462.539 65.6188 463.386 66.0908C464.248 66.5628 465.249 66.7988 466.389 66.7988C467.479 66.7988 468.448 66.5628 469.294 66.0908C470.14 65.6188 470.848 64.9189 471.418 63.9912C472.004 63.0635 472.443 61.9323 472.736 60.5977C473.046 59.2467 473.2 57.7005 473.2 55.959ZM500.52 60.9395H491.682V54.3232H500.52C501.724 54.3232 502.701 54.1198 503.449 53.7129C504.198 53.306 504.743 52.7445 505.085 52.0283C505.443 51.2959 505.622 50.474 505.622 49.5625C505.622 48.5859 505.443 47.6826 505.085 46.8525C504.743 46.0225 504.198 45.3551 503.449 44.8506C502.701 44.3298 501.724 44.0693 500.52 44.0693H494.904V73H486.335V37.4531H500.52C503.368 37.4531 505.817 37.974 507.868 39.0156C509.935 40.0573 511.522 41.4896 512.629 43.3125C513.736 45.1191 514.289 47.1862 514.289 49.5137C514.289 51.8086 513.736 53.8105 512.629 55.5195C511.522 57.2285 509.935 58.5632 507.868 59.5234C505.817 60.4674 503.368 60.9395 500.52 60.9395ZM543.366 66.4082V73H524.421V66.4082H543.366ZM527.473 37.4531V73H518.903V37.4531H527.473ZM540.925 51.5645V57.9365H524.421V51.5645H540.925ZM543.439 37.4531V44.0693H524.421V37.4531H543.439ZM546.882 37.4531H560.871C563.605 37.4531 565.982 37.86 568 38.6738C570.018 39.4876 571.573 40.6921 572.663 42.2871C573.77 43.8822 574.323 45.8516 574.323 48.1953C574.323 50.2298 574.006 51.9307 573.371 53.2979C572.736 54.665 571.849 55.7962 570.71 56.6914C569.587 57.5703 568.277 58.2946 566.779 58.8643L563.972 60.4512H552.229L552.18 53.835H560.871C561.962 53.835 562.865 53.6396 563.581 53.249C564.297 52.8584 564.834 52.305 565.192 51.5889C565.567 50.8564 565.754 49.9857 565.754 48.9766C565.754 47.9512 565.567 47.0723 565.192 46.3398C564.818 45.6074 564.265 45.0459 563.532 44.6553C562.816 44.2646 561.929 44.0693 560.871 44.0693H555.451V73H546.882V37.4531ZM566.34 73L558.479 57.2773L567.561 57.2285L575.52 72.6338V73H566.34Z" fill="#4EABF8"/>
<path d="M24.8848 96.9551H21.2227L21.2031 94.709H24.1719C24.7057 94.709 25.1322 94.6504 25.4512 94.5332C25.7702 94.4095 26.0013 94.2305 26.1445 93.9961C26.2943 93.7617 26.3691 93.4688 26.3691 93.1172C26.3691 92.7135 26.2943 92.388 26.1445 92.1406C25.9948 91.8932 25.7572 91.7142 25.4316 91.6035C25.1126 91.4863 24.6992 91.4277 24.1914 91.4277H22.5117V103H19.084V88.7812H24.1914C25.0703 88.7812 25.8548 88.8626 26.5449 89.0254C27.235 89.1816 27.821 89.4225 28.3027 89.748C28.791 90.0736 29.1621 90.4837 29.416 90.9785C29.6699 91.4668 29.7969 92.043 29.7969 92.707C29.7969 93.2865 29.6732 93.8301 29.4258 94.3379C29.1784 94.8457 28.765 95.2591 28.1855 95.5781C27.6126 95.8906 26.8281 96.0534 25.832 96.0664L24.8848 96.9551ZM24.748 103H20.3926L21.5645 100.363H24.748C25.2168 100.363 25.5911 100.292 25.8711 100.148C26.1576 99.9987 26.3626 99.8034 26.4863 99.5625C26.6165 99.3151 26.6816 99.0417 26.6816 98.7422C26.6816 98.3776 26.6198 98.0618 26.4961 97.7949C26.3789 97.528 26.1901 97.3229 25.9297 97.1797C25.6693 97.0299 25.321 96.9551 24.8848 96.9551H22.0039L22.0234 94.709H25.4707L26.2715 95.6074C27.222 95.5684 27.974 95.7018 28.5273 96.0078C29.0872 96.3138 29.4876 96.7174 29.7285 97.2188C29.9694 97.7201 30.0898 98.2441 30.0898 98.791C30.0898 99.722 29.888 100.5 29.4844 101.125C29.0872 101.75 28.4915 102.219 27.6973 102.531C26.903 102.844 25.9199 103 24.748 103ZM31.9941 88.7812H37.5898C38.6836 88.7812 39.6341 88.944 40.4414 89.2695C41.2487 89.5951 41.8704 90.0768 42.3066 90.7148C42.7493 91.3529 42.9707 92.1406 42.9707 93.0781C42.9707 93.8919 42.8438 94.5723 42.5898 95.1191C42.3359 95.666 41.9811 96.1185 41.5254 96.4766C41.0762 96.8281 40.5521 97.1178 39.9531 97.3457L38.8301 97.9805H34.1328L34.1133 95.334H37.5898C38.026 95.334 38.3874 95.2559 38.6738 95.0996C38.9603 94.9434 39.1751 94.722 39.3184 94.4355C39.4681 94.1426 39.543 93.7943 39.543 93.3906C39.543 92.9805 39.4681 92.6289 39.3184 92.3359C39.1686 92.043 38.9473 91.8184 38.6543 91.6621C38.3678 91.5059 38.013 91.4277 37.5898 91.4277H35.4219V103H31.9941V88.7812ZM39.7773 103L36.6328 96.7109L40.2656 96.6914L43.4492 102.854V103H39.7773ZM47.1504 88.7812L49.7676 94.9531L52.3945 88.7812H56.0859L51.5156 97.8926V103H48.0293V97.8926L43.4492 88.7812H47.1504ZM61.6914 91.7695L58.2246 103H54.543L59.7676 88.7812H62.1016L61.6914 91.7695ZM64.5625 103L61.0859 91.7695L60.6367 88.7812H63L68.2539 103H64.5625ZM64.4258 97.6973V100.344H57.1309V97.6973H64.4258ZM81.1738 88.7812V103H77.7559L72.7266 94.1523V103H69.2988V88.7812H72.7266L77.7559 97.6289V88.7812H81.1738ZM90.0215 88.7812H92.8145L95.9883 98.6738L99.1621 88.7812H101.955L97.1211 103H94.8555L90.0215 88.7812ZM88.3223 88.7812H91.2129L91.75 99.6797V103H88.3223V88.7812ZM100.764 88.7812H103.664V103H100.227V99.6797L100.764 88.7812ZM112.062 91.7695L108.596 103H104.914L110.139 88.7812H112.473L112.062 91.7695ZM114.934 103L111.457 91.7695L111.008 88.7812H113.371L118.625 103H114.934ZM114.797 97.6973V100.344H107.502V97.6973H114.797ZM119.67 88.7812H125.266C126.359 88.7812 127.31 88.944 128.117 89.2695C128.924 89.5951 129.546 90.0768 129.982 90.7148C130.425 91.3529 130.646 92.1406 130.646 93.0781C130.646 93.8919 130.52 94.5723 130.266 95.1191C130.012 95.666 129.657 96.1185 129.201 96.4766C128.752 96.8281 128.228 97.1178 127.629 97.3457L126.506 97.9805H121.809L121.789 95.334H125.266C125.702 95.334 126.063 95.2559 126.35 95.0996C126.636 94.9434 126.851 94.722 126.994 94.4355C127.144 94.1426 127.219 93.7943 127.219 93.3906C127.219 92.9805 127.144 92.6289 126.994 92.3359C126.844 92.043 126.623 91.8184 126.33 91.6621C126.044 91.5059 125.689 91.4277 125.266 91.4277H123.098V103H119.67V88.7812ZM127.453 103L124.309 96.7109L127.941 96.6914L131.125 102.854V103H127.453ZM136.359 88.7812V103H132.941V88.7812H136.359ZM144.973 91.7695L141.506 103H137.824L143.049 88.7812H145.383L144.973 91.7695ZM147.844 103L144.367 91.7695L143.918 88.7812H146.281L151.535 103H147.844ZM147.707 97.6973V100.344H140.412V97.6973H147.707ZM164.455 88.7812V103H161.037L156.008 94.1523V103H152.58V88.7812H156.008L161.037 97.6289V88.7812H164.455ZM178.654 95.6074V96.1836C178.654 97.2708 178.501 98.2474 178.195 99.1133C177.896 99.9727 177.469 100.708 176.916 101.32C176.363 101.926 175.708 102.391 174.953 102.717C174.198 103.036 173.365 103.195 172.453 103.195C171.535 103.195 170.695 103.036 169.934 102.717C169.178 102.391 168.521 101.926 167.961 101.32C167.408 100.708 166.978 99.9727 166.672 99.1133C166.372 98.2474 166.223 97.2708 166.223 96.1836V95.6074C166.223 94.5202 166.372 93.5436 166.672 92.6777C166.978 91.8118 167.404 91.0762 167.951 90.4707C168.505 89.8587 169.159 89.3932 169.914 89.0742C170.676 88.7487 171.516 88.5859 172.434 88.5859C173.345 88.5859 174.178 88.7487 174.934 89.0742C175.695 89.3932 176.353 89.8587 176.906 90.4707C177.46 91.0762 177.889 91.8118 178.195 92.6777C178.501 93.5436 178.654 94.5202 178.654 95.6074ZM175.178 96.1836V95.5879C175.178 94.8848 175.116 94.2663 174.992 93.7324C174.875 93.1921 174.699 92.7396 174.465 92.375C174.23 92.0104 173.941 91.737 173.596 91.5547C173.257 91.3659 172.87 91.2715 172.434 91.2715C171.978 91.2715 171.581 91.3659 171.242 91.5547C170.904 91.737 170.62 92.0104 170.393 92.375C170.165 92.7396 169.992 93.1921 169.875 93.7324C169.764 94.2663 169.709 94.8848 169.709 95.5879V96.1836C169.709 96.8802 169.764 97.4987 169.875 98.0391C169.992 98.5729 170.165 99.0254 170.393 99.3965C170.627 99.7676 170.913 100.048 171.252 100.236C171.597 100.425 171.997 100.52 172.453 100.52C172.889 100.52 173.277 100.425 173.615 100.236C173.954 100.048 174.237 99.7676 174.465 99.3965C174.699 99.0254 174.875 98.5729 174.992 98.0391C175.116 97.4987 175.178 96.8802 175.178 96.1836ZM190.031 103H186.877L186.896 100.363H190.031C190.682 100.363 191.232 100.207 191.682 99.8945C192.137 99.582 192.482 99.1165 192.717 98.498C192.958 97.873 193.078 97.1048 193.078 96.1934V95.5781C193.078 94.8945 193.01 94.2956 192.873 93.7812C192.743 93.2604 192.548 92.8275 192.287 92.4824C192.027 92.1309 191.701 91.8672 191.311 91.6914C190.926 91.5156 190.484 91.4277 189.982 91.4277H186.818V88.7812H189.982C190.946 88.7812 191.828 88.9473 192.629 89.2793C193.436 89.6048 194.133 90.0736 194.719 90.6855C195.311 91.291 195.767 92.0104 196.086 92.8438C196.411 93.6706 196.574 94.5885 196.574 95.5977V96.1934C196.574 97.196 196.411 98.1139 196.086 98.9473C195.767 99.7806 195.314 100.5 194.729 101.105C194.143 101.711 193.449 102.18 192.648 102.512C191.854 102.837 190.982 103 190.031 103ZM188.84 88.7812V103H185.412V88.7812H188.84ZM210.393 95.6074V96.1836C210.393 97.2708 210.24 98.2474 209.934 99.1133C209.634 99.9727 209.208 100.708 208.654 101.32C208.101 101.926 207.447 102.391 206.691 102.717C205.936 103.036 205.103 103.195 204.191 103.195C203.273 103.195 202.434 103.036 201.672 102.717C200.917 102.391 200.259 101.926 199.699 101.32C199.146 100.708 198.716 99.9727 198.41 99.1133C198.111 98.2474 197.961 97.2708 197.961 96.1836V95.6074C197.961 94.5202 198.111 93.5436 198.41 92.6777C198.716 91.8118 199.143 91.0762 199.689 90.4707C200.243 89.8587 200.897 89.3932 201.652 89.0742C202.414 88.7487 203.254 88.5859 204.172 88.5859C205.083 88.5859 205.917 88.7487 206.672 89.0742C207.434 89.3932 208.091 89.8587 208.645 90.4707C209.198 91.0762 209.628 91.8118 209.934 92.6777C210.24 93.5436 210.393 94.5202 210.393 95.6074ZM206.916 96.1836V95.5879C206.916 94.8848 206.854 94.2663 206.73 93.7324C206.613 93.1921 206.438 92.7396 206.203 92.375C205.969 92.0104 205.679 91.737 205.334 91.5547C204.995 91.3659 204.608 91.2715 204.172 91.2715C203.716 91.2715 203.319 91.3659 202.98 91.5547C202.642 91.737 202.359 92.0104 202.131 92.375C201.903 92.7396 201.73 93.1921 201.613 93.7324C201.503 94.2663 201.447 94.8848 201.447 95.5879V96.1836C201.447 96.8802 201.503 97.4987 201.613 98.0391C201.73 98.5729 201.903 99.0254 202.131 99.3965C202.365 99.7676 202.652 100.048 202.99 100.236C203.335 100.425 203.736 100.52 204.191 100.52C204.628 100.52 205.015 100.425 205.354 100.236C205.692 100.048 205.975 99.7676 206.203 99.3965C206.438 99.0254 206.613 98.5729 206.73 98.0391C206.854 97.4987 206.916 96.8802 206.916 96.1836ZM213.869 88.7812H216.662L219.836 98.6738L223.01 88.7812H225.803L220.969 103H218.703L213.869 88.7812ZM212.17 88.7812H215.061L215.598 99.6797V103H212.17V88.7812ZM224.611 88.7812H227.512V103H224.074V99.6797L224.611 88.7812ZM233.352 88.7812V103H229.934V88.7812H233.352ZM247.639 88.7812V103H244.221L239.191 94.1523V103H235.764V88.7812H239.191L244.221 97.6289V88.7812H247.639ZM261.438 95.4023V101.242C261.197 101.509 260.826 101.796 260.324 102.102C259.829 102.401 259.204 102.658 258.449 102.873C257.694 103.088 256.805 103.195 255.783 103.195C254.839 103.195 253.983 103.046 253.215 102.746C252.447 102.44 251.786 101.994 251.232 101.408C250.686 100.816 250.262 100.093 249.963 99.2402C249.67 98.3809 249.523 97.3978 249.523 96.291V95.5C249.523 94.3932 249.673 93.4102 249.973 92.5508C250.272 91.6914 250.692 90.9688 251.232 90.3828C251.779 89.7904 252.421 89.3411 253.156 89.0352C253.898 88.7292 254.712 88.5762 255.598 88.5762C256.906 88.5762 257.971 88.7845 258.791 89.2012C259.611 89.6113 260.233 90.181 260.656 90.9102C261.079 91.6328 261.337 92.4694 261.428 93.4199H258.137C258.072 92.9512 257.948 92.554 257.766 92.2285C257.59 91.8965 257.336 91.6458 257.004 91.4766C256.672 91.3008 256.242 91.2129 255.715 91.2129C255.305 91.2129 254.93 91.3008 254.592 91.4766C254.26 91.6523 253.977 91.9193 253.742 92.2773C253.508 92.6289 253.326 93.0716 253.195 93.6055C253.072 94.1393 253.01 94.7643 253.01 95.4805V96.291C253.01 97.0007 253.068 97.6224 253.186 98.1562C253.309 98.6901 253.492 99.1361 253.732 99.4941C253.98 99.8457 254.292 100.113 254.67 100.295C255.054 100.471 255.507 100.559 256.027 100.559C256.392 100.559 256.704 100.529 256.965 100.471C257.225 100.406 257.44 100.327 257.609 100.236C257.785 100.139 257.919 100.048 258.01 99.9629V97.7559H255.627V95.4023H261.438ZM271.154 88.7812H274.582V98.0684C274.582 99.1751 274.351 100.113 273.889 100.881C273.426 101.643 272.779 102.219 271.945 102.609C271.112 103 270.132 103.195 269.006 103.195C267.893 103.195 266.913 103 266.066 102.609C265.227 102.219 264.569 101.643 264.094 100.881C263.625 100.113 263.391 99.1751 263.391 98.0684V88.7812H266.828V98.0684C266.828 98.6543 266.913 99.1328 267.082 99.5039C267.251 99.8685 267.499 100.135 267.824 100.305C268.15 100.474 268.544 100.559 269.006 100.559C269.475 100.559 269.868 100.474 270.188 100.305C270.507 100.135 270.747 99.8685 270.91 99.5039C271.073 99.1328 271.154 98.6543 271.154 98.0684V88.7812ZM286.525 100.363V103H278.947V100.363H286.525ZM280.168 88.7812V103H276.74V88.7812H280.168ZM285.549 94.4258V96.9746H278.947V94.4258H285.549ZM286.555 88.7812V91.4277H278.947V88.7812H286.555ZM298.576 100.363V103H288.283V100.363H298.576ZM298.508 90.5391L289.982 103H287.502V101.193L296.125 88.7812H298.508V90.5391ZM297.404 88.7812V91.4277H287.453V88.7812H297.404Z" fill="#4EABF8"/>
<path d="M564.399 218.092V208.249C563.861 202.905 560.316 198.853 557.039 193.974M590.708 218.092V212.187C607.625 212.187 605.744 192.499 605.744 192.499C605.744 192.499 613.262 192.499 613.262 184.623L605.744 172.812C605.744 157.06 592.965 149.328 579.434 149.187C571.854 149.108 565.801 151.013 561.277 154.352" stroke="#4EABF8" stroke-width="5" stroke-linecap="round" stroke-linejoin="round"/>
<path d="M585.712 166.411L592.603 175.025L585.712 183.638M558.149 166.411L551.258 175.025L558.149 183.638M575.376 162.966L568.485 187.084" stroke="#4EABF8" stroke-width="5" stroke-linecap="round" stroke-linejoin="round"/>
<path d="M650.225 161.713H681.546V167.978H687.811V155.449C687.811 152.004 684.992 149.216 681.546 149.216L650.225 149.185C646.779 149.185 643.96 152.004 643.96 155.449V167.978H650.225V161.713ZM676.566 198.015L690.943 183.638L676.566 169.262L672.15 173.709L682.079 183.638L672.15 193.567L676.566 198.015ZM659.621 193.567L649.692 183.638L659.621 173.709L655.205 169.262L640.828 183.638L655.205 198.015L659.621 193.567ZM681.546 205.563H650.225V199.299H643.96V211.828C643.96 215.273 646.779 218.092 650.225 218.092H681.546C684.992 218.092 687.811 215.273 687.811 211.828V199.299H681.546V205.563Z" fill="#4EABF8"/>
<path d="M718.516 164.497V149.185H795.08V164.497H787.423V156.841H726.172V164.497H718.516ZM741.485 218.092V210.436H718.516V195.123H726.172V202.779H787.423V195.123H795.08V210.436H772.11V218.092H741.485ZM729.235 179.81L739.188 169.857L733.828 164.497L718.516 179.81L733.828 195.123L739.188 189.763L729.235 179.81ZM784.361 179.81L774.407 189.763L779.767 195.123L795.08 179.81L779.767 164.497L774.407 169.857L784.361 179.81Z" fill="#4EABF8"/>
<rect x="2.5" y="2.5" width="815" height="230" stroke="#4EABF8" stroke-width="5"/>
</svg>
